<?xml version="1.0" encoding="UTF-8" standalone="no"?>
<svg
   xmlns:dc="http://purl.org/dc/elements/1.1/"
   xmlns:cc="http://creativecommons.org/ns#"
   xmlns:rdf="http://www.w3.org/1999/02/22-rdf-syntax-ns#"
   xmlns:svg="http://www.w3.org/2000/svg"
   xmlns="http://www.w3.org/2000/svg"
   xmlns:xlink="http://www.w3.org/1999/xlink"
   xmlns:sodipodi="http://sodipodi.sourceforge.net/DTD/sodipodi-0.dtd"
   xmlns:inkscape="http://www.inkscape.org/namespaces/inkscape"
   inkscape:version="1.0 (4035a4fb49, 2020-05-01)"
   width="800"
   height="430"
   viewBox="0 0 800 430"
   version="1.1"
   id="svg64"
   sodipodi:docname="uiBackground-dark.svg">
  <metadata
     id="metadata68">
    <rdf:RDF>
      <cc:Work
         rdf:about="">
        <dc:format>image/svg+xml</dc:format>
        <dc:type
           rdf:resource="http://purl.org/dc/dcmitype/StillImage" />
      </cc:Work>
    </rdf:RDF>
  </metadata>
  <sodipodi:namedview
     inkscape:document-rotation="0"
     inkscape:current-layer="svg64"
     inkscape:window-maximized="1"
     inkscape:window-y="-8"
     inkscape:window-x="-8"
     inkscape:cy="231.50359"
     inkscape:cx="441.06632"
     inkscape:zoom="0.8468837"
     showgrid="false"
     id="namedview66"
     inkscape:window-height="705"
     inkscape:window-width="1366"
     inkscape:pageshadow="2"
     inkscape:pageopacity="0"
     guidetolerance="10"
     gridtolerance="10"
     objecttolerance="10"
     borderopacity="1"
     bordercolor="#666666"
     pagecolor="#ffffff" />
  <defs
     id="defs52">
    <linearGradient
       gradientUnits="userSpaceOnUse"
       x2="400"
       y1="430"
       x1="400"
       id="a">
      <stop
         id="stop40"
         stop-color="#202020"
         offset="0.41" />
      <stop
         id="stop42"
         stop-color="#3d3c3c"
         offset="0.84" />
    </linearGradient>
    <linearGradient
       gradientUnits="userSpaceOnUse"
       y2="240.55"
       x2="399.9"
       y1="136.52"
       x1="399.9"
       id="b">
      <stop
         id="stop45"
         stop-color="#1f1f1f"
         offset="0" />
      <stop
         id="stop47"
         stop-color="#171717"
         offset="1" />
    </linearGradient>
    <linearGradient
       xlink:href="#b"
       y2="240.55"
       x2="479.32"
       y1="197.69"
       x1="479.32"
       id="c" />
    <linearGradient
       xlink:href="#b"
       y2="179.41"
       x2="320.43"
       y1="136.54"
       x1="320.43"
       id="d" />
  </defs>
  <title
     id="title54">uiBackground</title>
  <rect
     id="rect56"
     style="fill:url(#a)"
     height="430"
     width="800" />
  <path
     id="path58"
     style="fill:url(#b)"
     d="M451.44,141.5c-.07-2.25-1-3.55-2.73-3.93h-24.2q-3.6.09-3.71,4.06v50.44l-33.72-54a5,5,0,0,0-3.05-1.5l-.9-.07H351.68q-3.19.28-3.33,4v95.06c.08,2.25,1,3.56,2.73,3.93h24.2q3.6-.09,3.71-4.06V185l33.72,54a5,5,0,0,0,3.05,1.51c.29,0,.59,0,.9.06h31.45q3.19-.28,3.33-4Z" />
  <path
     id="path60"
     style="fill:url(#c)"
     d="M496.34,228.3s0,0,0,0l-36.67-30.57v38.87c.07,2.47,1.18,3.8,3.31,4h30.25a5.45,5.45,0,0,0,4.05-2,7.24,7.24,0,0,0,0-9.46,3.59,3.59,0,0,0-.39-.39l-.06-.06,0,0Z" />
  <path
     id="path62"
     style="fill:url(#d)"
     d="M303.41,148.79l0,.05,36.67,30.57V140.54c-.07-2.48-1.18-3.81-3.31-4H306.56a5.49,5.49,0,0,0-4.05,2,6.81,6.81,0,0,0-1.76,4.72,6.91,6.91,0,0,0,1.76,4.74q.19.21.39.39l.06.06,0,0A4.12,4.12,0,0,0,303.41,148.79Z" />
</svg>
