<svg xmlns="http://www.w3.org/2000/svg" xmlns:xlink="http://www.w3.org/1999/xlink" width="800" height="430" viewBox="0 0 800 430"><defs><linearGradient id="a" x1="400" y1="430" x2="400" gradientUnits="userSpaceOnUse"><stop offset="0.41" stop-color="#272727"/><stop offset="0.84" stop-color="#4b4a4a"/></linearGradient><linearGradient id="b" x1="399.9" y1="136.52" x2="399.9" y2="240.55" gradientUnits="userSpaceOnUse"><stop offset="0" stop-color="#505050"/><stop offset="1" stop-color="#3d3d3d"/></linearGradient><linearGradient id="c" x1="479.32" y1="197.69" x2="479.32" y2="240.55" xlink:href="#b"/><linearGradient id="d" x1="320.43" y1="136.54" x2="320.43" y2="179.41" xlink:href="#b"/></defs><title>uiBackground</title><rect width="800" height="430" style="fill:url(#a)"/><path d="M451.44,141.5c-.07-2.25-1-3.55-2.73-3.93h-24.2q-3.6.09-3.71,4.06v50.44l-33.72-54a5,5,0,0,0-3.05-1.5l-.9-.07H351.68q-3.19.28-3.33,4v95.06c.08,2.25,1,3.56,2.73,3.93h24.2q3.6-.09,3.71-4.06V185l33.72,54a5,5,0,0,0,3.05,1.51c.29,0,.59,0,.9.06h31.45q3.19-.28,3.33-4Z" style="fill:url(#b)"/><path d="M496.34,228.3s0,0,0,0l-36.67-30.57v38.87c.07,2.47,1.18,3.8,3.31,4h30.25a5.45,5.45,0,0,0,4.05-2,7.24,7.24,0,0,0,0-9.46,3.59,3.59,0,0,0-.39-.39l-.06-.06,0,0Z" style="fill:url(#c)"/><path d="M303.41,148.79l0,.05,36.67,30.57V140.54c-.07-2.48-1.18-3.81-3.31-4H306.56a5.49,5.49,0,0,0-4.05,2,6.81,6.81,0,0,0-1.76,4.72,6.91,6.91,0,0,0,1.76,4.74q.19.21.39.39l.06.06,0,0A4.12,4.12,0,0,0,303.41,148.79Z" style="fill:url(#d)"/></svg>