<svg xmlns="http://www.w3.org/2000/svg" viewBox="0 0 520 320"><title>NTLogoRevised</title><path d="M520,50a48.16,48.16,0,0,0-14.65-35.35A48.16,48.16,0,0,0,470,0H50A48.16,48.16,0,0,0,14.65,14.65,48.16,48.16,0,0,0,0,50V270a48.16,48.16,0,0,0,14.65,35.35A48.16,48.16,0,0,0,50,320H470a50,50,0,0,0,50-50Z"/><path d="M379.55,51.6q-.26-7.85-6.35-9.15H316.8q-8.4.19-8.65,9.45V169.45l-78.6-125.8a11.64,11.64,0,0,0-7.1-3.5q-1-.1-2.1-.15h-73.3q-7.45.64-7.75,9.3V270.85q.25,7.84,6.35,9.15h56.4q8.4-.19,8.65-9.45V153l78.6,125.8a11.64,11.64,0,0,0,7.1,3.5q1,.1,2.1.15h73.3q7.45-.65,7.75-9.3Z" style="fill:#fff"/><path d="M484.2,253.9a.47.47,0,0,0-.1-.1l-85.45-71.25v90.6q.25,8.66,7.7,9.3h70.5a12.69,12.69,0,0,0,9.45-4.6,15.86,15.86,0,0,0,4.1-11,16.06,16.06,0,0,0-4.1-11.05q-.45-.5-.9-.9l-.15-.15-.1-.1A8.7,8.7,0,0,0,484.2,253.9Z" style="fill:#fff"/><path d="M34.55,68.6a.47.47,0,0,0,.1.1L120.1,140V49.35q-.25-8.66-7.7-9.3H41.9a12.69,12.69,0,0,0-9.45,4.6,15.86,15.86,0,0,0-4.1,11,16.06,16.06,0,0,0,4.1,11.05q.45.49.9.9l.15.15.1.1A8.7,8.7,0,0,0,34.55,68.6Z" style="fill:#fff"/></svg>