<?xml version="1.0" encoding="UTF-8" standalone="no"?>
<svg
   version="1.1"
   id="Layer_1"
   x="0px"
   y="0px"
   width="422"
   viewBox="0 0 422 652"
   enable-background="new 0 0 438 663"
   opacity="0.33"
   xml:space="preserve"
   height="652"
   xmlns="http://www.w3.org/2000/svg"
   xmlns:svg="http://www.w3.org/2000/svg"><defs
   id="defs17" />&#10;&#10;&#10;&#10;&#10;&#10;&#10;&#10;&#10;&#10;&#10;&#10;&#10;&#10;<path
   id="path2"
   style="fill:#000000;fill-opacity:1"
   d="m 305.2993,0 c -1.65824,1.9712811 -3.25329,3.5452329 -4.47656,5.3691409 -12.41399,18.5091861 -24.5706,37.1963691 -37.26563,55.5097651 -3.48729,5.030696 -5.52276,9.895011 -4.82226,15.9375 0.43506,3.752691 0.8454,7.521206 0.98828,11.292969 0.7272,19.190835 1.45301,38.381675 2.00391,57.578125 0.46659,16.25835 0.69461,32.52492 1.02734,48.78711 0.0102,0.49974 -0.17514,1.1172 0.0527,1.47657 0.75898,1.19695 1.44873,2.98542 2.54883,3.33398 9.16115,2.90271 18.40931,5.53391 27.82032,8.30273 2.28325,-11.34553 4.63134,-23.01885 6.98046,-34.6914 1.6705,1.0802 2.42909,2.13783 2.53321,3.25586 1.08185,11.61421 2.32028,23.22495 2.91797,34.86718 0.20166,3.92789 1.77724,6.11123 4.54101,8.48829 7.25102,6.23647 14.17798,12.84753 21.26563,19.27539 1.42452,1.29192 2.98589,2.43317 4.74804,3.85742 0.60898,-4.77606 1.06445,-8.35472 1.55078,-12.40235 0.36654,-6.56507 0.67942,-12.6627 1.04688,-18.75781 0.64483,-10.69597 1.33551,-21.39033 1.98633,-32.08594 1.01166,-16.62509 2.07322,-33.24806 2.98047,-49.8789 0.4867,-8.9215 0.67159,-17.85848 1.03515,-26.78711 0.30261,-7.432103 -0.11029,-15.009213 1.27149,-22.240239 0.94696,-4.955455 -0.482,-8.676983 -2.55664,-12.414062 C 330.94635,45.502982 318.24057,23.02972 305.2993,0 Z M 36.043445,126.73047 c -0.948037,0.0183 -2.048238,0.72583 -3.0625,1.04102 0.495392,1.05893 0.730581,2.41201 1.535157,3.11914 2.349194,2.06468 4.875174,3.94 7.419922,5.76758 23.212233,16.67039 44.998365,34.89528 63.056636,57.72851 5.57317,8.09699 10.90716,15.92563 16.41016,24.00196 -0.0216,0.003 0.5259,0.0511 0.92773,-0.16797 9.68967,-5.28185 19.20704,-10.90638 29.0918,-15.79102 6.93401,-3.4265 14.29711,-6.03904 21.59765,-8.65234 4.23151,-1.51469 5.06382,-3.24433 1.90235,-6.45703 C 164.18597,176.40995 152.09933,167.1627 138.78758,159.67188 120.09437,149.15272 99.932053,142.17665 79.291492,136.69727 65.126285,132.93685 50.750997,129.9604 36.43993,126.76758 c -0.128456,-0.0287 -0.261051,-0.0397 -0.396485,-0.0371 z m 161.800775,27.42774 c -0.72811,0.0341 -1.56501,0.24861 -2.29101,0.27929 0.216,1.01698 0.2332,2.13529 0.68555,3.03321 1.44455,2.86758 3.04971,5.65315 4.80859,8.80078 3.83822,7.52744 4.83135,15.07784 2.27344,23.22265 5.10543,0 9.24609,-0.14622 13.37109,0.0391 4.21085,0.18917 8.40684,0.70249 13.65039,1.16601 -0.78516,-3.16369 -0.7017,-6.13503 -2.11328,-7.93359 -5.56047,-7.0849 -11.29345,-14.0903 -17.57031,-20.53321 -3.2093,-3.29421 -7.64668,-5.43086 -11.66797,-7.86132 -0.31091,-0.18791 -0.70962,-0.23338 -1.14649,-0.21289 z m 6.0586,47.76171 c -3.48996,0.0274 -7.03535,0.39792 -10.62305,1.10352 -9.88498,1.9441 -19.59706,4.83674 -29.3125,7.56641 -23.51089,6.60566 -42.52971,19.03671 -53.63281,41.69531 -6.07101,12.38933 -11.994247,24.79048 -12.595697,39.41406 1.3772,10.3012 3.009297,20.09611 4.023427,29.95508 0.44193,4.29614 0.85828,9.29468 -0.84375,12.99414 -8.703177,18.91697 -19.600596,36.46322 -35.203119,50.6582 -3.793317,3.45114 -4.384237,6.75207 -1.728516,9.96094 3.594974,4.34378 7.169955,8.70921 10.902344,12.9336 12.221552,13.83269 24.045994,27.8474 31.388671,45.1582 4.82423,11.37341 14.14809,18.55093 25.84375,21.68164 8.88364,2.37796 18.16901,3.52341 27.35351,4.43164 8.90623,0.88077 17.91297,0.72671 26.87305,1.08789 7.29683,0.29409 14.59112,0.91257 21.88281,0.85547 1.79789,-0.0141 4.47828,-1.70951 5.16602,-3.3125 1.13141,-2.63703 1.20607,-5.82093 1.30859,-8.78906 0.43606,-12.62386 0.6002,-25.25765 1.0918,-37.87891 0.45581,-11.70245 3.99237,-21.65741 15.18164,-27.79297 5.78465,-3.17194 10.99676,-7.43271 16.2832,-11.44336 1.44345,-1.09506 2.21982,-3.06836 3.30274,-4.63867 -1.56488,-1.02051 -3.05415,-2.75519 -4.70899,-2.93164 -5.91839,-0.63104 -11.88853,-0.84101 -17.8457,-1.01563 -15.66139,-0.45911 -29.70741,-4.59903 -40.5,-16.85156 -1.30777,-1.48468 -3.78284,-3.06482 -5.50195,-2.85351 -5.21014,0.64044 -10.6258,1.41691 -15.39063,3.46679 -7.89907,3.39829 -15.31536,7.90604 -23.03125,11.75391 -1.2633,0.63001 -3.01931,0.27292 -4.54687,0.37305 0.19533,-1.53412 0.15079,-3.14792 0.63281,-4.58594 1.42365,-4.24707 3.34373,-8.34361 4.55078,-12.64453 3.28244,-11.69561 0.68373,-21.99073 -7.28125,-26.76953 -5.45446,-3.27255 -11.54364,-5.48679 -17.35352,-8.17578 5.31047,-4.64523 10.91743,-10.05449 12.94922,-18.2793 2.05254,-8.30868 -1.02229,-15.62736 -3.15234,-23.23828 -2.2509,-8.04276 -8.66321,-12.71192 -15.43359,-18.02735 1.87112,-0.68595 2.58491,-1.13226 3.33007,-1.19336 12.52482,-1.02737 25.04585,-2.13941 37.58594,-2.9375 5.80911,-0.36965 11.67432,-0.39391 17.48633,-0.0723 13.65261,0.75553 27.35054,1.28808 40.91406,2.89258 14.41853,1.70567 28.27251,7.24175 43.04492,6.76757 1.14899,-0.0369 3.16414,-1.42501 3.24024,-2.3164 1.01333,-11.86343 0.14452,-23.70991 -5.03906,-34.47461 -4.83081,-10.03212 -11.72568,-18.93904 -21.0586,-25.34961 -9.1141,-6.26026 -19.08287,-9.2598 -29.55273,-9.17774 z m 31.4414,2.16407 c -0.27533,0.60365 -0.55083,1.2069 -0.82617,1.81054 0.82043,1.09041 1.53173,2.28729 2.47852,3.25391 4.9232,5.02619 10.46798,9.55821 14.75,15.07422 8.54125,11.00266 12.45832,24.0285 15.15429,37.58203 1.15882,5.82586 -2.17809,14.49702 8.4043,16.07422 5.035,3.5275 9.44557,7.43018 14.50586,10.09766 14.22915,7.50079 28.52739,5.15785 42.40625,-1.22461 9.60137,-4.41538 11.86736,-17.91267 4.5918,-25.57618 -7.95919,-8.3836 -15.61253,-17.11289 -24.13086,-24.89062 -6.15946,-5.62398 -13.23021,-10.41033 -20.39844,-14.73438 -12.60378,-7.6029 -26.94099,-10.59143 -41.05859,-13.99414 -5.26558,-1.26911 -10.58307,-2.32099 -15.87696,-3.47265 z m -218.02929,8.57422 c -6.825524,-0.0707 -12.7798227,0.49474 -17.24414048,1.83203 0,0.47858 -0.1739083,1.29666 0.023438,1.39844 C 28.835784,230.7117 60.620122,240.22912 84.135243,264.1836 c 0.819664,0.83499 2.327935,0.99319 3.246094,1.35937 3.07861,-5.84895 5.978897,-11.35733 9.119137,-17.13672 2.83971,-3.61443 5.437976,-6.95908 7.980466,-10.23047 C 92.803414,225.19986 46.8922,212.96449 17.31493,212.65821 Z m 167.30664,55.65625 c -3.95335,-0.0206 -7.9123,0.0751 -11.87891,0.29101 -14.89015,0.81043 -29.77342,1.76248 -45.67383,2.71289 2.42262,3.20962 4.5738,5.79697 6.4375,8.57617 7.67886,11.45076 11.61472,23.38229 4.2793,36.61133 -1.27895,2.30649 -2.51905,4.63328 -3.77734,6.95117 2.3586,1.09317 4.72761,2.1648 7.07421,3.28321 11.1126,5.2965 16.68025,21.0698 11.81836,33.41992 -1.10923,2.81766 -2.17826,5.65058 -3.58789,9.31445 7.92887,-3.64162 14.92033,-6.61292 21.69141,-10.02343 8.76268,-4.41364 16.58567,-4.69247 23.07031,3.89062 0.46742,0.61866 1.34459,0.92654 2.33008,1.58203 10.1837,8.42067 21.79982,12.72413 34.38867,13.39063 8.08774,0.42816 16.29768,-0.97568 24.41602,-1.88282 2.17807,-0.24341 5.05277,-1.07614 6.19922,-2.6582 9.85815,-13.60421 14.19671,-29.06472 11.21093,-45.52539 -3.1329,-17.27168 -7.67699,-33.99637 -24.14257,-44.84961 -8.95838,-5.90483 -18.09271,-9.99881 -28.46094,-11.83398 -11.73486,-2.0771 -23.53449,-3.18836 -35.39453,-3.25 z m 170.88867,13.51953 c -2.96584,0.006 -6.01828,1.02943 -9.12695,3.30273 -13.9652,10.21248 -29.40316,16.05029 -47.05664,10.62305 -8.75687,-2.69214 -17.75157,-2.85919 -26.75586,-3.14844 -1.76404,-0.0567 -3.53949,0.2052 -6.04102,0.36914 0.74167,2.63629 1.08707,4.73804 1.91211,6.62891 2.45636,5.62972 5.68982,10.99225 7.51172,16.80664 1.94543,6.20873 3.04598,12.76699 3.76562,19.25586 1.2272,11.06563 -2.95578,21.21052 -6.23828,31.48437 -1.74106,5.44941 -0.0521,7.60742 5.61914,7.38867 3.46946,-0.1338 6.94602,-1.03487 10.38477,-0.87304 9.09304,0.42795 18.20277,0.94086 27.24023,1.98828 11.00176,1.27509 21.98048,2.87986 32.88672,4.80859 10.38817,1.8371 20.4963,5.36822 31.35156,3.18946 7.1724,-1.43951 14.3801,-2.33216 20.02735,-7.73438 2.50348,-2.3949 5.40946,-4.36936 8.4375,-6.74023 8.17385,-2.30576 10.57428,-8.31529 11.28125,-15.54297 0.0809,-0.82675 0.14026,-1.67093 0.35156,-2.46875 1.63098,-6.15799 0.56393,-11.65342 -3.06445,-17.01367 -1.75931,-2.59909 -2.05044,-6.15006 -3.31836,-9.13672 -1.63586,-3.85342 -2.83814,-8.28165 -5.58594,-11.17188 -3.46183,-3.64132 -8.21546,-6.10657 -12.55273,-8.85547 -10.77913,-6.83159 -21.73711,-13.38525 -32.42578,-20.35351 -2.75981,-1.79918 -5.63768,-2.81227 -8.60352,-2.80664 z M 81.547352,284.1543 c -15.021889,7.6812 -28.422763,16.36393 -39.259766,28.5 -2.551045,2.85687 -5.282513,5.9842 -5.046875,11.0957 4.625056,-1.53787 8.512341,-3.10819 12.539063,-4.11718 11.178112,-2.80093 22.413777,-5.36792 34.070312,-8.03321 5.05498,0.47214 4.029136,-2.2999 3.445313,-5.02539 -1.253974,-5.8539 -2.289782,-11.75562 -3.59375,-17.59765 -0.35701,-1.59945 -1.345368,-3.05814 -2.154297,-4.82227 z m 151.326168,0.55469 c 1.64198,-0.0984 2.77704,1.42419 3.69922,4.33398 -2.26927,0.38309 -4.38866,0.82907 -6.52539,0.94531 -0.18673,0.0102 -0.49224,-2.15066 -0.74219,-3.30273 1.41468,-1.27572 2.58317,-1.91753 3.56836,-1.97656 z m 15.84375,12.20898 c 0.43534,0.0165 0.85261,0.0637 1.20313,0.14063 0.67119,0.1473 1.57009,2.83129 1.3125,3.03515 -1.33335,1.05505 -3.00737,1.68027 -4.5625,2.45508 -0.93296,-1.70502 -1.71725,-3.65797 -1.07422,-4.82226 0.34302,-0.62108 1.81507,-0.85804 3.12109,-0.8086 z m 55.36523,85.20899 c -2.79678,0.0202 -3.1843,2.05239 -3.38867,5.23437 -0.5512,8.58288 -1.43368,17.14487 -2.26367,26.66406 -0.8746,-1.47686 -1.53721,-2.10134 -1.60351,-2.7832 -0.74615,-7.67928 -1.5018,-15.36057 -2.03125,-23.05664 -0.21691,-3.1528 -1.52423,-4.5293 -4.58399,-3.74805 -6.84608,1.74808 -13.66001,3.62055 -19.45703,5.16797 0,8.59997 -0.0538,16.34909 0.0215,24.09571 0.0385,3.9655 0.30661,7.92865 0.68555,12.3164 0.40799,12.08147 0.60221,23.73952 0.80078,35.70508 16.82586,-5.04486 32.48468,-9.79383 48.18555,-14.40039 3.09757,-0.90878 4.36287,-2.22169 4.45117,-5.80078 0.2351,-9.53543 1.41773,-19.04569 1.76367,-28.58203 0.32748,-9.02471 0.0703,-18.06954 0.0703,-27.16407 -6.48786,-1.02084 -13.50352,-1.71902 -20.30274,-3.33007 -0.9294,-0.22022 -1.70224,-0.32302 -2.34766,-0.31836 z m 48.30665,66.03711 c -0.74564,-0.0465 -1.54386,0.0439 -2.15039,0.22656 -19.75215,5.94707 -39.47073,12.0094 -59.5918,18.12305 -17.08427,5.33043 -33.71127,10.79407 -50.50977,15.66796 -3.64536,1.05768 -5.59575,2.74381 -7.20312,5.85352 -4.63317,8.96355 -9.50392,17.80445 -14.20703,26.73242 -2.09159,3.9704 -4.00488,8.03516 -6.65039,13.36914 59.25226,-15.85423 116.92794,-31.28751 176.0957,-47.11914 -12.05858,-11.51052 -22.93321,-21.96104 -33.95313,-32.25586 -0.3919,-0.36612 -1.08444,-0.55113 -1.83007,-0.59765 z m -29.76758,62.87695 c -1.62881,0.27906 -2.62143,0.34357 -3.54883,0.625 -11.58281,3.51447 -23.1804,6.98267 -34.7168,10.64453 -3.52034,1.11743 -6.86649,2.78802 -10.33789,4.59961 1.88278,14.32219 3.64823,28.27669 5.83594,42.16406 0.70325,4.46448 -0.36731,9.62885 3.48828,13.3418 8.43926,-4.7265 17.0124,-5.20581 25.84766,-3.4707 6.17913,1.21349 7.21984,0.34868 7.57617,-6.05664 0.30371,-5.45893 0.66452,-10.92103 1.23242,-16.35743 1.16727,-11.17388 2.5289,-22.32734 3.72852,-33.49804 0.4147,-3.86152 0.58515,-7.74897 0.89453,-11.99219 z m -20.85352,79.73828 c -5.81629,-0.0348 -11.32189,1.47306 -17.08398,3.47852 -10.29339,6.91808 -15.31146,16.10846 -14.98047,28.29101 0.51114,18.81632 19.0229,33.43383 39.13281,28.2207 14.34176,-3.71783 26.59924,-20.59181 21.82617,-37.46093 -2.73107,-9.65221 -9.59703,-19.35682 -22.95312,-21.94141 -2.02867,-0.39255 -4.00264,-0.57631 -5.94141,-0.58789 z m -2.59961,17.82227 c 1.97614,0.0785 4.19314,0.79964 6.8125,2.09179 4.68383,3.72864 5.83662,8.13087 4.16016,12.8125 -1.62893,4.54907 -5.41858,7.09546 -10.33008,7.00586 -5.101,-0.093 -8.51963,-2.83827 -10.39844,-7.66406 -1.77097,-4.54889 0.0842,-8.19434 2.98242,-11.21094 2.09036,-2.1757 4.23269,-3.13605 6.77344,-3.03515 z" />&#10;&#10;&#10;&#10;</svg>
