<?xml version="1.0" encoding="UTF-8" standalone="no"?>
<svg
   xmlns:dc="http://purl.org/dc/elements/1.1/"
   xmlns:cc="http://creativecommons.org/ns#"
   xmlns:rdf="http://www.w3.org/1999/02/22-rdf-syntax-ns#"
   xmlns:svg="http://www.w3.org/2000/svg"
   xmlns="http://www.w3.org/2000/svg"
   xmlns:sodipodi="http://sodipodi.sourceforge.net/DTD/sodipodi-0.dtd"
   xmlns:inkscape="http://www.inkscape.org/namespaces/inkscape"
   width="79.375mm"
   height="79.375mm"
   viewBox="0 0 79.375 79.375"
   opacity=".33"
   version="1.1"
   id="svg1123"
   inkscape:version="1.0.2 (e86c870879, 2021-01-15, custom)"
   sodipodi:docname="idris-bg.svg">
  <defs
     id="defs1117" />
  <sodipodi:namedview
     id="base"
     pagecolor="#ffffff"
     bordercolor="#666666"
     borderopacity="1.0"
     inkscape:pageopacity="0.0"
     inkscape:pageshadow="2"
     inkscape:zoom="2"
     inkscape:cx="173.60668"
     inkscape:cy="145.26386"
     inkscape:document-units="mm"
     inkscape:current-layer="layer1"
     inkscape:document-rotation="0"
     showgrid="true"
     showguides="true"
     inkscape:guide-bbox="true"
     inkscape:window-width="1920"
     inkscape:window-height="1018"
     inkscape:window-x="2552"
     inkscape:window-y="-8"
     inkscape:window-maximized="1">
    <sodipodi:guide
       position="0,79.375"
       orientation="0,300"
       id="guide1192" />
    <sodipodi:guide
       position="79.375,79.375"
       orientation="300,0"
       id="guide1194" />
    <sodipodi:guide
       position="79.375,0"
       orientation="0,-300"
       id="guide1196" />
    <sodipodi:guide
       position="0,0"
       orientation="-300,0"
       id="guide1198" />
    <sodipodi:guide
       position="0,79.375"
       orientation="0.70710678,0.70710678"
       id="guide1200" />
    <sodipodi:guide
       position="79.375,79.375"
       orientation="0.70710678,-0.70710678"
       id="guide1202" />
    <inkscape:grid
       type="xygrid"
       id="grid1235" />
    <sodipodi:guide
       position="39.6875,39.6875"
       orientation="0,-1"
       id="guide1237" />
    <sodipodi:guide
       position="39.6875,39.6875"
       orientation="1,0"
       id="guide1239" />
  </sodipodi:namedview>
  <metadata
     id="metadata1120">
    <rdf:RDF>
      <cc:Work
         rdf:about="">
        <dc:format>image/svg+xml</dc:format>
        <dc:type
           rdf:resource="http://purl.org/dc/dcmitype/StillImage" />
        <dc:title />
      </cc:Work>
    </rdf:RDF>
  </metadata>
  <g
     inkscape:label="Layer 1"
     inkscape:groupmode="layer"
     id="layer1"
     transform="translate(-71.815491,-108.47917)">
    <path
       id="path1241"
       style="opacity:1;fill-opacity:1;stroke-width:1.00157481;stroke-miterlimit:4;stroke-dasharray:none"
       d="M 150,0 0,150 150,300 300,150 Z m -35,65.234375 h 70 v 4.630859 h -5.9043 c -6.66658,0 -11.52593,2.044864 -14.57812,6.134766 -2.00801,2.670765 -3.01172,9.098598 -3.01172,19.28125 v 12.4707 h 32.83008 l 6.64062,-6.61914 9.29492,9.26758 -5.9746,4.63477 c 0,35.30776 0.21987,57.37426 0.6621,66.20117 L 195,185.87109 v -7.94336 h -33.49414 v 27.02539 c 0,3.98623 0.11723,7.31683 0.3418,10.04688 h 45.76757 c 3.98395,-0.44089 6.19797,-2.64856 6.64063,-6.62109 0.44223,-4.41348 0.88484,-13.01932 1.32812,-25.81836 h 3.32032 c 0,11.0336 0.66423,18.31687 1.99218,21.84765 1.77061,3.53079 4.20408,6.39868 7.30274,8.60547 -1.77061,3.53071 -3.98267,5.95914 -6.63867,7.28321 -2.65603,1.76535 -6.4198,2.64648 -11.28907,2.64648 h -46.74414 c 0.91155,1.67959 2.44123,3.15465 4.60547,4.41992 3.45366,2.0031 7.10742,3.00391 10.96289,3.00391 H 185 V 235 h -70 v -4.63281 h 5.7832 c 6.74694,0 11.64703,-2.04507 14.69922,-6.13477 1.92766,-2.67091 2.89063,-9.09664 2.89063,-19.2793 v -27.02539 h -33.67578 v 9.26758 l -9.958989,4.63477 c 0.442223,-15.00571 0.66211,-30.45329 0.66211,-46.3418 0,-15.88848 -0.219887,-30.45299 -0.66211,-43.69336 l 10.623049,5.95703 h 33.01172 v -12.4707 c 0,-8.596913 -0.5219,-14.273076 -1.56641,-17.027344 -0.80358,-2.086601 -2.44993,-3.8804 -4.93945,-5.382812 -3.53404,-2.003125 -7.22854,-3.00586 -11.08399,-3.00586 H 115 Z m -10.30273,46.490235 v 28.4668 h 33.67578 v -28.4668 z m 56.80859,0 v 28.4668 H 195 v -28.4668 z m -56.80859,32.43945 v 29.79102 h 33.67578 v -29.79102 z m 56.80859,0 v 29.79102 H 195 v -29.79102 z"
       transform="matrix(0.26458333,0,0,0.26458333,71.815491,108.47917)" />
  </g>
</svg>
