<?xml version="1.0" encoding="UTF-8" standalone="no"?>
<svg
   version="1.0"
   width="187.5pt"
   height="188.25pt"
   viewBox="0 0 187.5 188.25"
   preserveAspectRatio="xMidYMid meet"
   id="svg1"
   sodipodi:docname="bg-orion3.svg"
   inkscape:version="1.4.4 (dcaf3e7, 2026-05-05)"
   xmlns:inkscape="http://www.inkscape.org/namespaces/inkscape"
   xmlns:sodipodi="http://sodipodi.sourceforge.net/DTD/sodipodi-0.dtd"
   xmlns="http://www.w3.org/2000/svg"
   xmlns:svg="http://www.w3.org/2000/svg">
  <defs
     id="defs1" />
  <sodipodi:namedview
     id="namedview1"
     pagecolor="#505050"
     bordercolor="#eeeeee"
     borderopacity="1"
     inkscape:showpageshadow="0"
     inkscape:pageopacity="0"
     inkscape:pagecheckerboard="0"
     inkscape:deskcolor="#505050"
     inkscape:document-units="pt"
     inkscape:zoom="3.247012"
     inkscape:cx="124.88405"
     inkscape:cy="125.5"
     inkscape:window-width="1920"
     inkscape:window-height="1017"
     inkscape:window-x="1912"
     inkscape:window-y="-8"
     inkscape:window-maximized="1"
     inkscape:current-layer="svg1" />
  <g
     transform="matrix(0.075,0,0,0.075,0,188.25)"
     id="g1"
     inkscape:highlight-color="#aaaaaa">
    <path
       id="path1"
       d="m 80 -2502 v 7 l 138 138 137 137 h 895 895 l 138 -138 137 -137 v -8 -7 H 1250 80 Z M 20 -1240 V -70 h 8 7 l 138 -138 137 -137 v -895 -895 L 172 -2273 35 -2410 h -8 -7 z m 2342 -1027 -132 132 v 895 895 l 135 135 135 135 v -1163 -1162 h -3 -2 z m -1641 464 -301 308 v 208 208 l 13 -8 12 -8 493 -496 492 -496 v -11 -12 h -204 -204 z m 292 291 -592 597 -1 207 v 208 h 8 9 l 786 -794 787 -794 v -11 -11 h -202 -203 z m -593 -383 v 205 h 7 7 l 198 -197 198 -197 v -8 -8 H 625 420 Z m 887 679 -787 794 v 11 11 h 203 202 l 593 -599 592 -599 v -206 -206 h -8 -9 z m 291 290 -498 503 v 11 12 h 204 204 l 301 -307 301 -307 v -208 -208 l -8 1 -7 1 z m 294 299 -212 212 v 8 7 h 220 220 v -220 -220 h -8 -7 z M 237 -152 100 -15 v 8 7 h 1170 1170 v -8 -7 L 2302 -153 2165 -290 H 1270 375 Z"
       style="opacity:0.33" />
  </g>
</svg>
