<?xml version="1.0" encoding="UTF-8" standalone="no"?>
<svg
   xmlns:dc="http://purl.org/dc/elements/1.1/"
   xmlns:cc="http://creativecommons.org/ns#"
   xmlns:rdf="http://www.w3.org/1999/02/22-rdf-syntax-ns#"
   xmlns:svg="http://www.w3.org/2000/svg"
   xmlns="http://www.w3.org/2000/svg"
   xmlns:sodipodi="http://sodipodi.sourceforge.net/DTD/sodipodi-0.dtd"
   xmlns:inkscape="http://www.inkscape.org/namespaces/inkscape"
   width="235.47917mm"
   height="180.44585mm"
   viewBox="0 0 235.47917 180.44585"
   opacity=".33"
   version="1.1"
   id="svg1822"
   inkscape:version="1.0.2 (e86c870879, 2021-01-15, custom)"
   sodipodi:docname="sol-bg.svg">
  <defs
     id="defs1816" />
  <sodipodi:namedview
     id="base"
     pagecolor="#ffffff"
     bordercolor="#666666"
     borderopacity="1.0"
     inkscape:pageopacity="0.0"
     inkscape:pageshadow="2"
     inkscape:zoom="0.35"
     inkscape:cx="501.37953"
     inkscape:cy="-131.81321"
     inkscape:document-units="mm"
     inkscape:current-layer="layer1"
     inkscape:document-rotation="0"
     showgrid="true"
     showguides="true"
     inkscape:guide-bbox="true"
     inkscape:snap-grids="true"
     inkscape:window-width="1920"
     inkscape:window-height="1018"
     inkscape:window-x="2552"
     inkscape:window-y="-8"
     inkscape:window-maximized="1">
    <sodipodi:guide
       position="319.0875,225.95418"
       orientation="0.55508406,-0.83179426"
       id="guide1865" />
    <sodipodi:guide
       position="319.0875,-38.893754"
       orientation="-0.55508406,-0.83179426"
       id="guide1867" />
    <sodipodi:guide
       position="120.65,93.530208"
       orientation="1,0"
       id="guide1869" />
    <sodipodi:guide
       position="120.65,93.530208"
       orientation="0,-1"
       id="guide1875" />
    <inkscape:grid
       type="xygrid"
       id="grid2158"
       originx="-77.787501"
       originy="-45.508331" />
  </sodipodi:namedview>
  <metadata
     id="metadata1819">
    <rdf:RDF>
      <cc:Work
         rdf:about="">
        <dc:format>image/svg+xml</dc:format>
        <dc:type
           rdf:resource="http://purl.org/dc/dcmitype/StillImage" />
        <dc:title></dc:title>
        <cc:license
           rdf:resource="" />
      </cc:Work>
    </rdf:RDF>
  </metadata>
  <g
     inkscape:label="Layer 1"
     inkscape:groupmode="layer"
     id="layer1"
     transform="translate(1.965475,-123.23912)">
    <path
       style="fill-opacity:1;fill-rule:nonzero;stroke-width:1;stroke-miterlimit:4;stroke-dasharray:none"
       d="m 126.88661,292.57247 v 0.26458 l -7.67292,0.26458 c 1.90923,-1.56289 5.40359,-0.70829 7.67292,-0.52916 z"
       id="path2135" />
    <path
       style="fill-opacity:1;fill-rule:nonzero;stroke-width:1;stroke-miterlimit:4;stroke-dasharray:none"
       d="m 112.86369,292.57247 v 0.52916 l -7.67292,-0.26458 c 2.26907,-0.97869 5.29114,-0.56568 7.67292,-0.26458"
       id="path2133" />
    <path
       style="fill-opacity:1;fill-rule:nonzero;stroke-width:1;stroke-miterlimit:4;stroke-dasharray:none"
       d="m 86.934525,290.01474 0.08811,0.0884 c -0.130439,0.0434 -0.292629,-0.0884 -0.08811,-0.0884"
       id="path2131" />
    <path
       style="fill-opacity:1;fill-rule:nonzero;stroke-width:1;stroke-miterlimit:4;stroke-dasharray:none"
       d="m 146.99494,289.39747 v 0.26458 h -0.79375 l 0.79375,-0.26458"
       id="path2129" />
    <path
       style="fill-opacity:1;fill-rule:nonzero;stroke-width:1;stroke-miterlimit:4;stroke-dasharray:none"
       d="m 149.11161,288.8683 v 0.26458 l -1.85209,0.26459 1.85209,-0.52917"
       id="path2127" />
    <path
       style="fill-opacity:1;fill-rule:nonzero;stroke-width:1;stroke-miterlimit:4;stroke-dasharray:none"
       d="m 80.849108,288.07455 v 0.26458 h -0.79375 l 0.79375,-0.26458"
       id="path2125" />
    <path
       style="fill-opacity:1;fill-rule:nonzero;stroke-width:1;stroke-miterlimit:4;stroke-dasharray:none"
       d="m 75.292858,283.84122 c 2.200804,0.84904 7.349596,1.6002 8.73125,3.43958 -3.231356,-0.009 -6.331214,-1.41764 -8.995833,-3.175 l 0.264583,-0.26458"
       id="path2123" />
    <path
       style="fill-opacity:1;fill-rule:nonzero;stroke-width:1;stroke-miterlimit:4;stroke-dasharray:none"
       d="m 74.763692,283.57663 -0.264584,0.26459 0.264584,-0.26459"
       id="path2121" />
    <path
       style="fill-opacity:1;fill-rule:nonzero;stroke-width:1;stroke-miterlimit:4;stroke-dasharray:none"
       d="m 158.63661,283.04747 v 0.26458 c -3.36021,2.28547 -6.69899,3.9661 -10.84792,3.96875 l 3.175,-1.49939 7.67292,-2.73394"
       id="path2119" />
    <path
       style="fill-opacity:1;fill-rule:nonzero;stroke-width:1;stroke-miterlimit:4;stroke-dasharray:none"
       d="m 72.117858,281.98913 -0.264583,0.26459 0.264583,-0.26459"
       id="path2117" />
    <path
       style="fill-opacity:1;fill-rule:nonzero;stroke-width:1;stroke-miterlimit:4;stroke-dasharray:none"
       d="m 161.01786,281.45997 -0.26459,0.26458 0.26459,-0.26458"
       id="path2115" />
    <path
       style="fill-opacity:1;fill-rule:nonzero;stroke-width:1;stroke-miterlimit:4;stroke-dasharray:none"
       d="m 61.534525,279.87247 1.058333,0.52916 v 0.26459 l -1.322916,-0.52917 0.264583,-0.26458"
       id="path2113" />
    <path
       style="fill-opacity:1;fill-rule:nonzero;stroke-width:1;stroke-miterlimit:4;stroke-dasharray:none"
       d="m 55.713692,276.52099 0.08811,0.0884 c -0.13044,0.0434 -0.292629,-0.0884 -0.08811,-0.0884"
       id="path2111" />
    <path
       style="fill-opacity:1;fill-rule:nonzero;stroke-width:1;stroke-miterlimit:4;stroke-dasharray:none"
       d="m 53.861608,272.19955 6.35,4.49792 c -1.874308,-0.0431 -5.893064,-2.62017 -6.35,-4.49792"
       id="path2109" />
    <path
       style="fill-opacity:1;fill-rule:nonzero;stroke-width:1;stroke-miterlimit:4;stroke-dasharray:none"
       d="m 180.86161,270.08288 c -1.87854,2.66674 -5.67108,6.27909 -8.99584,6.87917 l 2.64584,-2.46936 6.35,-4.40981"
       id="path2107" />
    <path
       style="fill-opacity:1;fill-rule:nonzero;stroke-width:1;stroke-miterlimit:4;stroke-dasharray:none"
       d="m 50.157442,268.75997 0.264583,0.52916 -0.264583,-0.52916"
       id="path2105" />
    <path
       style="fill-opacity:1;fill-rule:nonzero;stroke-width:1;stroke-miterlimit:4;stroke-dasharray:none"
       d="m 183.24286,267.70163 -0.26459,0.26459 0.26459,-0.26459"
       id="path2103" />
    <path
       style="fill-opacity:1;fill-rule:nonzero;stroke-width:1;stroke-miterlimit:4;stroke-dasharray:none"
       d="m 191.97411,263.73288 -0.52917,0.52917 0.52917,-0.52917"
       id="path2101" />
    <path
       style="fill-opacity:1;fill-rule:nonzero;stroke-width:1;stroke-miterlimit:4;stroke-dasharray:none"
       d="m 197.00119,258.17663 -1.05833,1.05833 1.05833,-1.05833"
       id="path2099" />
    <path
       style="fill-opacity:1;fill-rule:nonzero;stroke-width:1;stroke-miterlimit:4;stroke-dasharray:none"
       d="m 36.928275,256.58913 1.322917,1.85208 -1.322917,-1.85208"
       id="path2097" />
    <path
       style="fill-opacity:1;fill-rule:nonzero;stroke-width:1;stroke-miterlimit:4;stroke-dasharray:none"
       d="m 197.00119,253.9433 c -0.80962,2.96254 -2.61937,4.9276 -5.29167,6.35 l 5.29167,-6.35"
       id="path2095" />
    <path
       style="fill-opacity:1;fill-rule:nonzero;stroke-width:1;stroke-miterlimit:4;stroke-dasharray:none"
       d="m 112.06994,251.29746 c 0,2.91995 -0.26326,5.90921 0.62098,8.73125 1.16364,3.7137 3.63167,6.16506 2.51195,10.31876 -0.33575,1.24592 -3.46974,6.45054 -1.72561,7.24455 1.98094,0.90197 5.49989,-2.46803 6.74979,-3.65363 4.15051,-3.93674 7.38372,-10.51428 7.45225,-16.29093 0.0185,-1.56395 0.38867,-3.90313 -0.71411,-5.18742 -0.97631,-1.13665 -2.93846,-1.1557 -4.31192,-1.16231 -3.52768,-0.0172 -7.05564,-2.7e-4 -10.58333,-2.7e-4"
       id="path2093" />
    <path
       style="fill-opacity:1;fill-rule:nonzero;stroke-width:1;stroke-miterlimit:4;stroke-dasharray:none"
       d="m 146.99494,272.72872 c 5.50016,-4.55745 5.70997,-16.13139 4.28228,-22.48959 -0.47889,-2.1336 -2.08491,-6.35635 -4.28625,-7.21175 -3.05885,-1.18851 -8.13646,3.29354 -10.57936,4.77679 -1.14803,0.69718 -2.82152,1.34329 -2.53736,2.96519 0.92578,5.28611 7.21704,7.69487 10.04174,11.6406 2.16032,3.01784 1.6584,7.01702 3.07895,10.31876"
       id="path2091" />
    <path
       style="fill-opacity:1;fill-rule:nonzero;stroke-width:1;stroke-miterlimit:4;stroke-dasharray:none"
       d="m 93.813692,241.77246 c -2.14339,2.6588 -3.640667,5.08477 -4.321969,8.46667 -0.754063,3.74386 -0.155575,6.76857 -3.096948,9.78562 -0.824442,0.8456 -5.630333,4.18809 -4.313237,5.59779 1.339056,1.43298 5.652293,0.0786 7.234237,-0.34317 5.416021,-1.44409 9.738254,-4.5339 13.447715,-8.69024 1.26418,-1.41605 3.30385,-3.75867 3.10144,-5.82083 -0.13573,-1.38139 -1.52347,-2.38416 -2.52624,-3.17103 -2.87893,-2.25928 -6.298934,-4.10766 -9.524998,-5.82481"
       id="path2089" />
    <path
       style="fill-opacity:1;fill-rule:nonzero;stroke-width:1;stroke-miterlimit:4;stroke-dasharray:none"
       d="m 22.376192,236.4808 c 1.388798,1.94468 2.558256,4.23068 2.910416,6.61458 h -0.264583 l -2.645833,-6.61458"
       id="path2087" />
    <path
       style="fill-opacity:1;fill-rule:nonzero;stroke-width:1;stroke-miterlimit:4;stroke-dasharray:none"
       d="m 210.23036,235.68705 -0.26459,0.26458 0.26459,-0.26458"
       id="path2085" />
    <path
       style="fill-opacity:1;fill-rule:nonzero;stroke-width:1;stroke-miterlimit:4;stroke-dasharray:none"
       d="m 21.053275,233.83496 -0.264583,0.26459 0.264583,-0.26459"
       id="path2083" />
    <path
       style="fill-opacity:1;fill-rule:nonzero;stroke-width:1;stroke-miterlimit:4;stroke-dasharray:none"
       d="m 208.37828,233.04121 c -0.10848,2.37411 -1.16417,4.36272 -2.38126,6.35 h -0.26458 l 2.64584,-6.35"
       id="path2081" />
    <path
       style="fill-opacity:1;fill-rule:nonzero;stroke-width:1;stroke-miterlimit:4;stroke-dasharray:none"
       d="m 159.43062,225.09075 c -1.7653,0.57256 -3.11017,3.0734 -4.11771,4.51088 -0.77232,1.10199 -1.49172,2.26986 -2.15662,3.43958 -0.65246,1.14803 -1.80842,2.8493 -1.72032,4.22937 0.0913,1.42372 2.15212,2.06031 3.23189,2.58154 1.67772,0.80936 3.69438,1.61449 5.55625,1.837 2.34024,0.27993 3.87535,-0.3384 6.08541,0.99986 2.37729,1.4396 3.64041,3.33878 4.97311,5.6978 0.36857,0.65273 1.11496,1.92749 2.05714,1.65338 1.95606,-0.56859 0.55245,-6.17114 0.30903,-7.47395 -1.07818,-5.774 -4.27963,-10.21926 -8.39761,-14.28644 -1.24777,-1.23243 -3.81741,-3.83884 -5.82057,-3.18902"
       id="path2079" />
    <path
       style="fill-opacity:1;fill-rule:nonzero;stroke-width:1;stroke-miterlimit:4;stroke-dasharray:none"
       d="m 80.584525,224.4494 c -5.388504,0.56753 -6.329627,6.21929 -9.793552,9.14109 -1.626658,1.37239 -3.697023,2.63313 -5.816865,3.03107 -1.312333,0.24659 -3.669506,-0.0947 -4.48945,1.25597 -1.050131,1.72985 1.531673,2.37623 2.637367,2.74849 3.420533,1.15174 7.422885,3.13399 11.1125,2.94323 3.807354,-0.19685 7.84225,-1.72191 11.1125,-3.61606 1.214437,-0.70326 2.938198,-1.73699 3.291946,-3.20807 0.28231,-1.17449 -0.659342,-2.26616 -1.263386,-3.17474 -1.591468,-2.39342 -2.754577,-4.9866 -4.269052,-7.40807 -0.584729,-0.93557 -1.314185,-1.84018 -2.522008,-1.71291"
       id="path2077" />
    <path
       style="fill-opacity:1;fill-rule:nonzero;stroke-width:1;stroke-miterlimit:4;stroke-dasharray:none"
       d="m 20.259525,216.37246 v 0.79375 h -0.264583 l 0.264583,-0.79375"
       id="path2075" />
    <path
       style="fill-opacity:1;fill-rule:nonzero;stroke-width:1;stroke-miterlimit:4;stroke-dasharray:none"
       d="m 212.08244,214.2558 v 2.11666 h -0.26458 l 0.26458,-2.11666"
       id="path2073" />
    <path
       style="fill-opacity:1;fill-rule:nonzero;stroke-width:1;stroke-miterlimit:4;stroke-dasharray:none"
       d="m 17.613692,213.46205 0.529166,7.40833 h -0.264583 l -0.264583,-7.40833"
       id="path2071" />
    <path
       style="fill-opacity:1;fill-rule:nonzero;stroke-width:1;stroke-miterlimit:4;stroke-dasharray:none"
       d="m 79.526192,202.34955 c -3.617648,0 -7.106444,0.19949 -10.583334,1.29328 -2.100527,0.66093 -4.330964,2.43073 -6.614583,2.05819 -1.46685,-0.23918 -6.482556,-3.86477 -7.66445,-2.39421 -0.672042,0.83608 0.212725,2.2725 0.634206,3.01149 1.509448,2.64609 3.560234,4.96464 5.971911,6.81699 3.539066,2.71806 7.226564,4.32567 11.641666,4.89929 1.575859,0.20452 3.964517,0.48392 5.105665,-0.92869 1.088231,-1.34726 0.918633,-3.61104 0.990071,-5.23134 0.140229,-3.17209 0.518848,-6.34524 0.518848,-9.525"
       id="path2069" />
    <path
       style="fill-opacity:1;fill-rule:nonzero;stroke-width:1;stroke-miterlimit:4;stroke-dasharray:none"
       d="m 163.66369,201.67327 c -4.69397,0.70776 -3.73062,8.52673 -3.3946,12.05336 0.12911,1.35599 0.1135,3.39302 1.33747,4.2709 4.20184,3.01414 10.24281,-4.21481 14.49255,-3.97774 2.66541,0.14869 5.77982,3.15621 8.42751,2.52254 1.08161,-0.25877 0.77734,-1.53406 0.47572,-2.28653 -0.7829,-1.95448 -2.1082,-3.57241 -3.61183,-5.01677 -4.11692,-3.9542 -11.71919,-8.47169 -17.72682,-7.56576"
       id="path2067" />
    <path
       style="fill-opacity:1;fill-rule:nonzero;stroke-width:1;stroke-miterlimit:4;stroke-dasharray:none"
       d="m 212.87619,193.35371 -0.26458,0.26458 0.26458,-0.26458"
       id="path2065" />
    <path
       style="fill-opacity:1;fill-rule:nonzero;stroke-width:1;stroke-miterlimit:4;stroke-dasharray:none"
       d="m 19.994942,191.50163 -1.322917,6.08542 h -0.264583 l 1.5875,-6.08542"
       id="path2063" />
    <path
       style="fill-opacity:1;fill-rule:nonzero;stroke-width:1;stroke-miterlimit:4;stroke-dasharray:none"
       d="m 208.11369,186.73913 c 1.44992,2.48496 2.58498,5.56577 2.64583,8.46666 -1.26735,-0.9599 -2.97391,-6.90985 -2.64583,-8.46666"
       id="path2061" />
    <path
       style="fill-opacity:1;fill-rule:nonzero;stroke-width:1;stroke-miterlimit:4;stroke-dasharray:none"
       d="m 24.492858,186.20996 -0.264583,0.26458 0.264583,-0.26458"
       id="path2059" />
    <path
       style="fill-opacity:1;fill-rule:nonzero;stroke-width:1;stroke-miterlimit:4;stroke-dasharray:none"
       d="m 161.01786,177.32737 c -2.77548,0.39767 -8.29416,2.20239 -8.88101,5.44301 -0.50561,2.794 3.16733,8.07032 4.67546,10.31848 0.6813,1.01574 1.56315,1.93543 2.88263,1.79097 5.00777,-0.54875 6.6556,-6.52198 9.80017,-9.41467 1.72296,-1.58486 3.87403,-2.10767 6.07483,-2.66118 0.87868,-0.22119 2.45242,-0.4273 2.84268,-1.40256 0.56277,-1.40626 -2.70906,-2.6154 -3.63643,-2.94402 -4.1193,-1.45917 -9.44298,-1.7481 -13.75833,-1.13003"
       id="path2057" />
    <path
       style="fill-opacity:1;fill-rule:nonzero;stroke-width:1;stroke-miterlimit:4;stroke-dasharray:none"
       d="m 116.56786,172.29923 c -17.962035,2.3876 -31.562941,16.38538 -33.292523,34.54823 -2.118254,22.2422 17.394503,43.1718 39.907103,40.40558 17.08415,-2.0992 30.86391,-16.35918 32.49877,-33.52641 2.04047,-21.42543 -16.22557,-44.46932 -39.11335,-41.4274"
       id="path2055" />
    <path
       style="fill-opacity:1;fill-rule:nonzero;stroke-width:1;stroke-miterlimit:4;stroke-dasharray:none"
       d="m 29.167252,170.24685 -0.08837,0.17622 0.08837,-0.17622"
       id="path2053" />
    <path
       style="fill-opacity:1;fill-rule:nonzero;stroke-width:1;stroke-miterlimit:4;stroke-dasharray:none"
       d="m 66.561608,169.01204 c 0,7.55545 0.858838,14.24358 5.770034,20.37292 1.865312,2.32807 4.597135,4.90617 7.723716,5.24193 3.690409,0.39608 5.39168,-6.07722 6.878902,-8.68151 0.675217,-1.1819 1.698625,-2.61991 0.861219,-3.96478 -2.707217,-4.34711 -9.09955,-2.31855 -13.031787,-4.06506 -4.117182,-1.82854 -5.147998,-6.1042 -8.202084,-8.9035"
       id="path2051" />
    <path
       style="fill-opacity:1;fill-rule:nonzero;stroke-width:1;stroke-miterlimit:4;stroke-dasharray:none"
       d="m 33.224108,169.01204 -3.96875,5.55625 c 0.508265,-2.13915 1.945746,-4.57067 3.96875,-5.55625"
       id="path2049" />
    <path
       style="fill-opacity:1;fill-rule:nonzero;stroke-width:1;stroke-miterlimit:4;stroke-dasharray:none"
       d="m 197.26578,166.89538 c 2.46591,2.00845 5.0165,4.48495 5.82083,7.67291 -1.79917,-0.0804 -5.73088,-5.90655 -5.82083,-7.67291"
       id="path2047" />
    <path
       style="fill-opacity:1;fill-rule:nonzero;stroke-width:1;stroke-miterlimit:4;stroke-dasharray:none"
       d="m 35.605358,166.36621 -0.264583,0.26458 0.264583,-0.26458"
       id="path2045" />
    <path
       style="fill-opacity:1;fill-rule:nonzero;stroke-width:1;stroke-miterlimit:4;stroke-dasharray:none"
       d="m 194.88452,164.77871 0.26459,0.52917 -0.26459,-0.52917"
       id="path2043" />
    <path
       style="fill-opacity:1;fill-rule:nonzero;stroke-width:1;stroke-miterlimit:4;stroke-dasharray:none"
       d="m 41.426192,155.78288 -1.852084,1.5875 v -0.26459 l 1.852084,-1.32291"
       id="path2041" />
    <path
       style="fill-opacity:1;fill-rule:nonzero;stroke-width:1;stroke-miterlimit:4;stroke-dasharray:none"
       d="m 133.76578,170.33496 c 2.97153,1.64809 5.81712,3.54304 8.73124,5.29167 0.82709,0.49636 2.36459,1.85684 3.39434,1.50759 0.87948,-0.29845 1.60391,-1.57982 2.10662,-2.30134 2.60905,-3.7465 1.36763,-7.95735 2.94719,-11.90625 1.06442,-2.66118 3.41921,-4.05818 5.26415,-6.08939 0.47969,-0.52811 1.60867,-1.68566 1.08162,-2.48232 -1.04643,-1.58141 -6.57305,0.35031 -7.91475,0.84878 -7.19111,2.67203 -13.41252,7.49856 -15.61041,15.13126"
       id="path2039" />
    <path
       style="fill-opacity:1;fill-rule:nonzero;stroke-width:1;stroke-miterlimit:4;stroke-dasharray:none"
       d="m 43.542858,153.66621 -1.058333,1.05833 1.058333,-1.05833"
       id="path2037" />
    <path
       style="fill-opacity:1;fill-rule:nonzero;stroke-width:1;stroke-miterlimit:4;stroke-dasharray:none"
       d="m 47.776192,153.13704 c -1.2827,1.74281 -3.602567,4.20132 -5.820834,4.49792 1.363398,-1.85129 3.769519,-3.47742 5.820834,-4.49792"
       id="path2035" />
    <path
       style="fill-opacity:1;fill-rule:nonzero;stroke-width:1;stroke-miterlimit:4;stroke-dasharray:none"
       d="m 182.71369,152.07871 c 2.76225,1.1557 5.91079,3.10515 7.67292,5.55625 -3.16971,-0.0376 -5.54038,-3.48536 -7.9375,-5.29167 l 0.26458,-0.26458"
       id="path2033" />
    <path
       style="fill-opacity:1;fill-rule:nonzero;stroke-width:1;stroke-miterlimit:4;stroke-dasharray:none"
       d="m 51.744942,150.75579 -0.264584,0.26459 0.264584,-0.26459"
       id="path2031" />
    <path
       style="fill-opacity:1;fill-rule:nonzero;stroke-width:1;stroke-miterlimit:4;stroke-dasharray:none"
       d="m 207.58452,150.49121 c -1.82827,0.89985 -2.58497,3.2557 -3.37872,5.02708 -2.2278,4.97708 -2.46857,13.30511 0.48154,17.99167 0.71173,1.12951 1.62454,3.12394 2.90777,3.68141 2.29129,0.9951 4.23862,-4.54766 4.75192,-6.06266 2.29393,-6.77571 -2.2278,-14.45604 -4.76251,-20.6375"
       id="path2029" />
    <path
       style="fill-opacity:1;fill-rule:nonzero;stroke-width:1;stroke-miterlimit:4;stroke-dasharray:none"
       d="m 92.226192,147.58079 c -3.571346,6.70587 -4.793986,13.99196 -3.226859,21.43125 0.509323,2.4175 1.790965,6.51114 3.89599,8.02799 0.973402,0.70141 2.463535,-0.558 3.299619,-1.03743 2.498989,-1.43245 5.113598,-2.76569 7.408328,-4.51776 0.76544,-0.58447 2.12831,-1.38483 2.15557,-2.47677 0.0587,-2.33097 -4.12354,-5.37051 -5.59118,-6.87519 -2.401623,-2.46169 -4.92072,-5.24061 -6.233848,-8.46667 -0.788722,-1.93702 -0.73316,-4.25582 -1.70762,-6.08542"
       id="path2027" />
    <path
       style="fill-opacity:1;fill-rule:nonzero;stroke-width:1;stroke-miterlimit:4;stroke-dasharray:none"
       d="m 62.592858,143.08288 v 0.26458 l -2.38125,1.32292 2.38125,-1.5875"
       id="path2025" />
    <path
       style="fill-opacity:1;fill-rule:nonzero;stroke-width:1;stroke-miterlimit:4;stroke-dasharray:none"
       d="m 167.36786,142.02454 c 1.74254,0.56806 3.83593,1.21682 4.7625,2.91042 l -5.02709,-2.64583 0.26459,-0.26459"
       id="path2023" />
    <path
       style="fill-opacity:1;fill-rule:nonzero;stroke-width:1;stroke-miterlimit:4;stroke-dasharray:none"
       d="m 125.82828,142.02454 c -2.354,0.25559 -4.05818,2.31616 -5.5761,3.96981 -3.71792,4.05051 -6.63416,8.56456 -7.70493,14.02186 -0.39661,2.02115 -1.16893,5.28373 0.24447,7.08343 1.67588,2.13412 8.73258,1.60099 11.18447,1.30757 1.21947,-0.14579 2.70854,-0.21114 3.24326,-1.52347 1.98941,-4.88183 -2.37834,-9.56496 -3.15621,-14.01128 -0.62548,-3.57426 1.69095,-7.25435 1.76504,-10.84792"
       id="path2021" />
    <path
       style="fill-opacity:1;fill-rule:nonzero;stroke-width:1;stroke-miterlimit:4;stroke-dasharray:none"
       d="m 169.74911,140.70163 -0.26458,0.26458 0.26458,-0.26458"
       id="path2019" />
    <path
       style="fill-opacity:1;fill-rule:nonzero;stroke-width:1;stroke-miterlimit:4;stroke-dasharray:none"
       d="m 64.444942,139.37871 -0.264584,0.26458 0.264584,-0.26458"
       id="path2017" />
    <path
       style="fill-opacity:1;fill-rule:nonzero;stroke-width:1;stroke-miterlimit:4;stroke-dasharray:none"
       d="m 185.35953,134.08704 c 0,7.57449 -0.66675,15.35192 5.02972,21.1664 0.99748,1.01627 4.36827,4.61275 6.00869,3.90526 1.8759,-0.80884 1.72773,-5.99361 1.50813,-7.60916 -0.96044,-7.06517 -6.84742,-13.44877 -12.54654,-17.4625"
       id="path2015" />
    <path
       style="fill-opacity:1;fill-rule:nonzero;stroke-width:1;stroke-miterlimit:4;stroke-dasharray:none"
       d="m 150.43452,132.49954 c 1.93781,0.75168 5.69543,1.70445 6.87917,3.43959 -2.6707,-0.0627 -4.85404,-1.96903 -7.14375,-3.175 l 0.26458,-0.26459"
       id="path2013" />
    <path
       style="fill-opacity:1;fill-rule:nonzero;stroke-width:1;stroke-miterlimit:4;stroke-dasharray:none"
       d="m 79.790775,132.23496 v 0.26458 l -5.291667,3.175 c 0.323586,-1.98808 3.545682,-2.93661 5.291667,-3.43958"
       id="path2011" />
    <path
       style="display:inline;fill-opacity:1;fill-rule:nonzero;stroke-width:1;stroke-miterlimit:4;stroke-dasharray:none"
       d="m 64.444942,139.37871 c 3.866091,-3.87694 6.040173,-8.95482 7.14375,-14.2875 -7.389548,3.07657 -22.177375,10.54867 -17.4625,20.6375 l -10.583334,7.9375 c 3.933561,-6.51034 3.753644,-11.98139 3.175,-19.31458 -2.046287,0.95435 -3.630083,3.09297 -5.102489,4.7625 -2.875227,3.25993 -5.975879,6.16955 -6.933142,10.58333 -0.523346,2.41273 -0.563562,5.02444 0.140758,7.40833 0.209286,0.70776 0.525992,1.96427 1.368161,2.16218 1.130035,0.26564 2.584979,-1.26471 3.382962,-1.89759 l -10.31875,12.7 c 0.267229,-2.06984 0.893234,-4.25001 0.745067,-6.35 -0.369887,-5.2324 -2.798498,-9.67238 -4.449233,-14.55209 h -0.264584 c -2.488671,6.06584 -6.719623,13.58477 -5.741458,20.37292 0.369094,2.56037 2.934494,9.68481 6.006042,6.87917 l -5.027084,12.17083 h -0.264583 c -1.225021,-6.31322 -5.428985,-14.038 -10.5833333,-17.99167 -0.5685896,1.9058 -0.37465,3.87139 -0.604573,5.82084 -0.9001125,7.62741 -1.202002,20.44647 8.8066563,22.225 l -1.058333,12.17083 H 16.555358 C 14.63025,205.73859 9.166075,200.34242 4.6491083,197.53625 c -1.4258396,-0.88583 -2.8270729,-2.00819 -4.49791663,-2.33046 0.99324583,6.75006 2.88422293,14.6402 7.11411663,20.10834 1.6835438,2.1762 3.9616067,3.80338 6.3796337,5.08476 1.134268,0.60114 3.179498,0.94774 4.006585,1.92934 0.769673,0.91361 0.786342,2.70087 1.021292,3.83382 0.540014,2.60376 1.518443,5.09058 2.115873,7.67291 -3.814763,-4.36668 -8.740511,-6.62834 -13.7583337,-9.34217 -2.8519437,-1.54226 -5.8689875,-3.51525 -8.9958333,-4.41616 3.9176854,8.38094 9.8401187,18.02183 18.25625,22.28956 2.577571,1.30704 6.615906,3.17473 9.525,2.31669 1.348052,4.26006 4.928923,8.44841 7.672917,11.90625 -8.460582,-4.71038 -17.565688,-8.21954 -27.2520837,-9.525 0.6458479,2.2942 3.9338247,4.60296 5.5800627,6.34894 5.609166,5.95022 12.800277,10.54312 20.878271,12.00944 2.477029,0.44953 6.538118,1.1774 8.73125,-0.36671 3.01916,4.27408 9.296135,8.87651 14.022916,11.1125 v 0.26458 c -10.836539,-4.50559 -22.677966,-5.55625 -34.395833,-5.55625 1.15914,2.14101 5.066506,3.53642 7.14375,4.72096 7.257256,4.13809 15.070402,7.44988 23.547917,7.44988 2.798498,0 5.493014,-0.13256 8.202083,-0.90276 0.907521,-0.25797 2.508779,-0.46964 2.645833,-1.47849 5.663142,2.3577 11.287919,6.23173 17.4625,7.14375 v 0.26458 l -16.139583,-0.2196 -20.108333,2.86543 v 0.52917 c 8.042275,1.03849 15.597187,4.29286 23.8125,4.49395 4.88606,0.11985 9.940925,-0.21431 14.552083,-1.96056 1.961621,-0.74295 3.92721,-2.98371 5.865812,-3.36339 1.219994,-0.23892 2.977886,0.53499 4.188355,0.77708 3.029479,0.60616 6.159764,1.35017 9.260418,1.37584 v 0.26458 c -9.369162,1.81689 -19.62547,5.82956 -28.045835,10.31875 v 0.26458 c 9.827948,0.7755 20.549923,-0.50853 29.897915,-3.70496 2.21404,-0.75723 4.24471,-1.79652 6.08542,-3.24987 1.51633,-1.19724 2.71065,-2.79506 4.7625,-2.83343 1.57586,-0.0296 3.82085,-0.381 5.29166,0.24686 3.64226,1.55416 6.11162,4.84002 10.05417,6.09415 9.66232,3.07419 19.83105,3.71184 29.89792,3.71184 -1.40494,-2.25319 -6.06425,-3.07129 -8.46667,-3.88065 -6.97071,-2.3487 -13.17228,-5.96212 -20.6375,-6.96727 v -0.26458 l 15.875,-2.91042 v 0.26458 l -0.79375,0.26459 c 1.15861,3.12922 7.34775,4.54739 10.31875,5.04798 9.76577,1.64598 22.13742,0.0318 31.22083,-3.98965 v -0.52917 c -7.9965,-2.06877 -17.40905,-3.34989 -25.66458,-3.34989 -4.1312,0 -8.09281,1.17317 -12.17083,1.49781 v -0.26458 c 8.80718,-1.3007 16.7251,-6.90378 24.60625,-10.58334 v 0.26459 c -0.96626,0.45984 -3.89626,2.14524 -2.29579,3.41683 1.64306,1.30571 4.56115,1.18586 6.52912,1.42134 8.53811,1.02102 17.23231,-2.74188 24.60625,-6.63231 2.41036,-1.27239 6.96648,-2.83475 8.20208,-5.34961 -8.47195,0 -17.68474,0.14049 -25.92916,2.31113 -4.00923,1.05542 -7.3578,2.95011 -11.1125,4.56803 v -0.26458 c 6.94214,-2.99535 11.71575,-9.2591 17.72708,-13.49375 l -0.26458,1.05833 c 11.12308,3.12579 23.21983,-5.24113 30.20748,-12.96458 1.51606,-1.67508 4.19364,-3.10224 5.24668,-5.02709 -10.08591,0.0833 -21.66143,4.96015 -29.63333,10.84792 l 8.99583,-13.75833 c 2.72257,1.41684 6.96913,-0.59637 9.525,-1.79441 6.81038,-3.19219 10.61773,-8.88074 14.39334,-15.13893 1.27529,-2.11428 3.15912,-4.41616 3.59833,-6.87916 -3.25966,0.939 -6.57489,2.98767 -9.525,4.65031 -5.31812,2.99773 -9.69698,5.50307 -13.75833,10.16635 1.41816,-4.35795 3.34433,-9.12601 3.43958,-13.75833 2.23573,0.48498 4.72811,-1.00357 6.61459,-2.12064 6.60664,-3.91477 9.06197,-11.14795 10.58333,-18.25228 0.43392,-2.01877 1.74625,-4.58258 1.32292,-6.61458 -2.06111,0.97525 -3.79148,2.54794 -5.55626,3.96901 -4.37885,3.52425 -10.74472,8.30289 -11.64166,14.28724 h -0.26459 c 0,-5.04243 -0.0529,-10.4357 -1.32291,-15.34583 2.96598,2.50719 6.75481,-1.62137 8.17033,-4.23334 3.87615,-7.16465 1.37583,-15.13999 1.35467,-22.75417 -1.82298,0.98267 -3.10356,3.38985 -4.33123,5.02709 -2.06904,2.75616 -4.65402,5.87084 -5.56154,9.26041 -0.70644,2.62679 -0.42598,5.51154 -0.42598,8.20209 h -0.26458 c -0.56357,-4.18042 -2.41036,-8.36533 -4.15132,-12.17084 -4.56141,-9.96156 -11.10721,-18.77986 -19.13202,-26.2173 -3.53748,-3.27924 -7.55544,-7.07257 -11.90625,-9.23686 v -0.26459 c 3.35942,-0.53551 1.66873,-6.34868 0.43312,-8.20208 -3.57452,-5.36231 -10.414,-9.35487 -16.30812,-11.64167 0.12832,6.18437 4.07353,11.21728 8.20209,15.34584 -3.22581,-1.50601 -8.00312,-2.84851 -10.76378,-5.04667 -0.7628,-0.60748 -0.66755,-1.77773 -1.00463,-2.62625 -0.48392,-1.21788 -1.3163,-2.25505 -2.25848,-3.15119 -4.37965,-4.16586 -13.61546,-6.51536 -19.5752,-6.6384 2.00819,5.18346 9.20274,10.22959 14.2875,11.98669 1.79837,0.6215 3.78883,0.57044 5.55625,1.19327 2.88158,1.01547 5.37184,3.10409 8.20208,4.28255 v 0.26458 c -7.22973,-0.91361 -16.16366,-0.33417 -22.75416,3.175 2.05449,1.46394 6.00842,1.16628 8.46667,1.34646 5.32103,0.39 10.52591,0.77232 15.875,0.77021 2.08756,-8e-4 4.59131,-0.89218 6.61458,-0.54558 2.67626,0.45879 4.98501,3.36286 7.40833,4.51433 v 0.26458 c -6.67914,-1.37874 -13.58397,-2.32331 -20.37292,-1.05833 1.26101,2.34447 7.56338,3.54197 10.05417,4.4069 3.82985,1.32979 7.60757,2.82019 11.64167,3.41762 2.22726,0.32967 5.38427,-0.10769 7.40833,0.91387 2.43681,1.22978 4.72017,4.46775 6.35,6.60744 -6.33677,-2.63869 -13.09343,-5.55149 -20.10833,-5.55625 1.57983,2.19498 4.39182,3.54515 6.61458,5.02708 4.73604,3.15728 9.42181,6.18041 14.55208,8.66299 1.73567,0.83926 4.78632,1.13083 6.18861,2.34368 2.21192,1.91294 3.56923,6.44155 4.65931,9.10167 -5.86581,-4.776 -12.24492,-9.2755 -19.84375,-10.84792 1.29911,2.5019 3.91054,4.2418 5.74411,6.35 2.97127,3.41313 5.1726,7.26572 8.80798,10.0838 1.78064,1.38007 3.60097,2.70378 5.55624,3.82614 1.00013,0.57335 2.47915,1.03796 3.13796,2.03465 1.98967,3.00831 1.73832,9.3898 1.88913,12.895 h -0.26459 c -1.16416,-7.88935 -9.9007,-14.76534 -16.40416,-18.52084 1.56104,6.74264 4.87892,14.44678 8.84767,20.10834 1.30704,1.86504 2.7596,3.68723 4.3815,5.28769 0.81227,0.8009 2.32568,1.6047 2.74637,2.69584 1.19592,3.09854 -1.67481,8.40661 -1.95262,11.59563 h -0.26459 c -0.47625,-6.02615 -3.55335,-10.68705 -7.19931,-15.34583 -1.22767,-1.56924 -2.33098,-3.63008 -4.17777,-4.49792 0,6.53548 -0.0847,14.33301 1.82562,20.6375 0.74084,2.44237 1.98967,4.78764 3.43959,6.87891 0.51593,0.74453 2.00025,1.81424 1.9976,2.76886 -0.005,1.03611 -1.05833,2.43893 -1.5531,3.31682 -1.5293,2.71303 -3.7174,5.35411 -4.91596,8.20208 h -0.26459 c 0.7329,-5.77771 0.45773,-10.79553 -1.24883,-16.40417 -0.55033,-1.80763 -1.25941,-4.7027 -3.24908,-5.29166 -1.63248,6.77545 -4.27302,13.92608 -4.73869,20.90208 -0.13758,2.04999 0.38365,4.15819 1.03452,6.08542 0.30956,0.91016 1.18533,2.19683 0.90752,3.175 -0.77787,2.74214 -5.47952,5.52794 -7.5221,7.40833 1.55178,-6.76883 1.07712,-12.49124 1.05833,-19.31458 h -0.26458 l -10.51481,15.34583 -1.80843,8.73125 -0.38417,3.33931 -2.63843,1.79917 -7.67291,3.85736 c 3.99838,-4.92734 6.89742,-10.77807 7.40833,-17.19792 -2.41406,1.07579 -4.55745,3.22262 -6.61458,4.86833 -4.04892,3.23903 -8.42381,6.35715 -11.6377,10.4775 -0.93186,1.19486 -1.71318,2.5228 -2.18705,3.96875 -0.29765,0.90832 -0.26405,2.30294 -1.07579,2.92788 -2.37146,1.82536 -7.84596,2.25161 -10.76405,2.62837 v -0.26458 c 4.71805,-1.50601 10.89872,-8.27193 11.64167,-13.22917 -2.70298,0.62574 -5.29563,1.87219 -7.9375,2.73315 -4.55771,1.48563 -9.28476,2.49502 -12.96458,5.77956 -1.79864,1.60522 -4.63206,3.91213 -4.23334,6.56854 -2.81331,0.3556 -5.63165,0.26459 -8.46666,0.26459 -1.00701,0 -2.48021,0.26088 -3.38323,-0.272 -1.21999,-0.71966 -1.79282,-2.82495 -2.58842,-3.96134 -1.4142,-2.01983 -3.26496,-3.45572 -5.40544,-4.64635 -5.519203,-3.06996 -12.539128,-4.7072 -18.520828,-6.73073 1.293283,5.44433 7.403041,11.55885 12.435416,13.75833 v 0.26459 c -3.224212,-0.60749 -8.598429,-0.76386 -11.316758,-2.66939 -1.106487,-0.77575 -0.875771,-2.50666 -1.235869,-3.68061 -0.4826,-1.57427 -1.548077,-2.99509 -2.607998,-4.23334 -4.604543,-5.37977 -11.643254,-11.06487 -17.647708,-14.81666 0.823383,6.48017 3.317346,13.27361 7.9375,17.99166 l -11.377083,-5.55625 c 2.327275,-8.28146 -3.205957,-15.1556 -7.740386,-21.43125 -1.414991,-1.95844 -2.66065,-5.30966 -4.695031,-6.61458 0,6.60347 -1.305719,14.34597 1.852083,20.37292 -2.42861,-1.66053 -7.446962,-5.09509 -8.436768,-7.93751 -0.324644,-0.93239 0.654314,-2.28494 0.93636,-3.175 0.672042,-2.1201 1.141412,-4.64978 1.081881,-6.87916 -0.194733,-7.29933 -4.119562,-13.94751 -4.693973,-21.16667 -1.977231,1.08453 -2.555346,4.07088 -3.18135,6.08542 -1.923785,6.19072 -2.56196,11.42709 -0.7874,17.72708 l -8.466666,-13.49375 c 2.80961,-0.567 4.487068,-3.96796 5.614193,-6.35 3.067844,-6.48229 2.852473,-15.96364 2.852473,-23.01875 -2.236258,0.87365 -3.712104,3.40492 -5.064125,5.29167 -4.065323,5.67319 -6.048375,10.19677 -6.048375,17.19791 h -0.264583 l -3.175,-15.875 h 0.264583 l 0.264584,1.05834 c 2.160587,-1.12078 3.702314,-3.25279 5.31151,-5.02709 5.315215,-5.86078 9.04531,-14.78359 10.828073,-22.48958 -7.721071,4.29868 -15.696142,11.45672 -16.933333,20.6375 h -0.264584 l 1.852084,-16.13959 c 2.436283,0.4707 5.56842,-2.28652 7.408333,-3.67717 4.545542,-3.43588 8.078523,-7.89914 11.754908,-12.19783 1.676929,-1.96082 3.989388,-3.79306 5.178425,-6.08541 -7.815791,1.15411 -16.266583,7.09295 -21.43125,12.7 1.030817,-3.04694 2.633398,-8.29204 5.130271,-10.43411 1.431661,-1.2282 4.47384,-1.44621 6.246813,-2.22938 4.233333,-1.87008 8.346281,-4.13967 12.170833,-6.74211 2.444221,-1.66344 8.679921,-4.44447 9.525,-7.31732 -7.798329,0.0214 -15.309585,3.45572 -21.960417,7.14375 2.070365,-2.55085 4.687359,-6.7019 7.672917,-8.19468 2.697162,-1.34858 7.292975,-0.61462 10.31875,-1.30069 6.602942,-1.49701 13.007975,-4.21137 19.314583,-6.64421 v -0.79375 c -6.863556,-1.63857 -14.448896,-0.21723 -21.166666,1.32291 v -0.26458 l 8.0899,-4.97046 7.255933,0.97816 17.197917,-1.25439 7.14375,-0.83873 c -1.55575,-1.25571 -3.924036,-1.65444 -5.820834,-2.19339 -6.164527,-1.75155 -12.760589,-2.16668 -19.05,-0.98161 v -0.26458 c 2.910417,-0.92128 5.131859,-3.34063 7.9375,-4.47807 1.885686,-0.76465 4.328319,-0.27173 6.35,-0.78608 4.701382,-1.19618 8.794221,-4.62942 12.170834,-7.96608 1.329531,-1.31365 2.915708,-2.55587 3.175,-4.49686 -5.55334,0.4535 -13.715471,2.20848 -18.255986,5.53694 -2.076979,1.52268 -2.260864,3.73803 -3.839369,5.47238 -1.988343,2.18466 -6.927056,3.99468 -9.654645,5.13027"
       id="path1863" />
  </g>
</svg>
